# xmcd CD database file generated by Grip 3.2.0
# 
# Track frame offsets:
#       150
#       20025
#       32175
#       49667
#       74865
#       105312
#       119720
#       141647
#       160095
#       175995
#       190980
#       225017
#       244110
#       260255
#       288627
# 
# Disc length: 4291 seconds
# 
# Revision: 2
# Processed by: cddbd v1.5.2PL0 Copyright (c) Steve Scherf et al.
# Submitted via: Grip 3.2.0
# 
DISCID=df10c10f
DTITLE=Colosseum - Daughter of Time
DYEAR=1995
DGENRE=Jazz
TTITLE0=Mandarin
TTITLE1=The Road She Walked Before
TTITLE2=Walking in the Park
TTITLE3=Beware the Ides of March
TTITLE4=Butty's Blues
TTITLE5=Elegy
TTITLE6=Those About to Die
TTITLE7=Theme for an Imaginary Western
TTITLE8=Daughter of Time
TTITLE9=Rope Ladder to the Moon
TTITLE10=The Grass Is Greener
TTITLE11=I Can't Live Without You
TTITLE12=Jumping Off the Sun
TTITLE13=Dark Side of the Moon
TTITLE14=On Second Thoughts
EXTD=YEAR: 1995
EXTT0=
EXTT1=
EXTT2=
EXTT3=
EXTT4=
EXTT5=
EXTT6=
EXTT7=
EXTT8=
EXTT9=
EXTT10=
EXTT11=
EXTT12=
EXTT13=
EXTT14=
PLAYORDER=
